{"title":"The Girl With The Dragon Tattoo 2011 R5 DVDRip XVID AC3-26K","uid":7002878,"size":1620855947,"categoryP":"video","categoryS":"movies","magnet":"?xt=urn:btih:83dedb46695dbe9346cf332f08bf950debbbebf5&amp;dn=The+Girl+With+The+Dragon+Tattoo+2011+R5+DVDRip+XVID+AC3-26K&amp;tr=udp%3A%2F%2Ftracker.openbittorrent.com%3A80&amp;tr=udp%3A%2F%2Fopen.demonii.com%3A1337&amp;tr=udp%3A%2F%2Ftracker.coppersurfer.tk%3A6969&amp;tr=udp%3A%2F%2Fexodus.desync.com%3A6969","seeders":1,"leechers":0,"uploader":"HeroMaster","files":-1,"time":1328171301,"description":"The Girl With The Dragon Tattoo 2011 R5 DVDRip XVID AC3-26K\n\nImdb: &lt;a href=&quot;\nhttp://www.imdb.com/title/tt1568346/&quot; rel=&quot;nofollow&quot; target=&quot;_NEW&quot;&gt;\nhttp://www.imdb.com/title/tt1568346/&lt;/a&gt;\n\nPlot:\nJournalist Mikael Blomkvist is aided in his search for a woman who has been missing for forty years by Lisbeth Salander, a young computer hacker.\n\nSources:\nVIDEO-RUSSIAN R5 DVDR!! THNXS\nAUDIO-STUDIO AUDIO THNXS\n\nNotes:\nENJOY !!!!\n\nGreetz:\nXtreme Encode|FYA|ILLUMANTI|CM8|RX|VISION|HDSCENE|NIGHTMAREZ|xTriLL|DTRG|CRYS|REMIXHD|\nBIDA|RX|REFILL|INSPiRAL|SIC|ZOMBIESZ|HOPE|Anonymous|GooN\nTo all the people who have helped me you know who you are\n\nAnything to offer email us @: &lt;a class=&quot;__cf_email__&quot; href=&quot;/cdn-cgi/l/email-protection&quot; data-cfemail=&quot;b08286dbf0d8c5c3d8ddd1d9dc9eddd5&quot;&gt;[email&amp;#160;protected]&lt;/a&gt;&lt;script cf-hash='f9e31' type=&quot;text/javascript&quot;&gt;\n/* &lt;![CDATA[ */!function(){try{var t=&quot;currentScript&quot;in document?document.currentScript:function(){for(var t=document.getElementsByTagName(&quot;script&quot;),e=t.length;e--;)if(t[e].getAttribute(&quot;cf-hash&quot;))return t[e]}();if(t&amp;&amp;t.previousSibling){var e,r,n,i,c=t.previousSibling,a=c.getAttribute(&quot;data-cfemail&quot;);if(a){for(e=&quot;&quot;,r=parseInt(a.substr(0,2),16),n=2;a.length-n;n+=2)i=parseInt(a.substr(n,2),16)^r,e+=String.fromCharCode(i);e=document.createTextNode(e),c.parentNode.replaceChild(e,c)}}}catch(u){}}();/* ]]&gt; */&lt;/script&gt;\n\nVideo\nID : 0\nFormat : MPEG-4 Visual\nFormat profile : Advanced Simple@L5\nFormat settings, BVOP : 2\nFormat settings, QPel : No\nFormat settings, GMC : No warppoints\nFormat settings, Matrix : Default (H.263)\nMuxing mode : Packed bitstream\nCodec ID : XVID\nCodec ID/Hint : XviD\nDuration : 2h 31mn\nBit rate : 947 Kbps\nWidth : 720 pixels\nHeight : 300 pixels\nDisplay aspect ratio : 2.40:1\nFrame rate : 25.000 fps\nColor space : YUV\nChroma subsampling : 4:2:0\nBit depth : 8 bits\nScan type : Progressive\nCompression mode : Lossy\nBits/(Pixel*Frame) : 0.175\nStream size : 1.00 GiB (68%)\nWriting library : XviD 1.2.1 (UTC 2008-12-04)\n\nAudio\nID : 1\nFormat : AC-3\nFormat/Info : Audio Coding 3\nMode extension : CM (complete main)\nCodec ID : 2000\nDuration : 2h 31mn\nBit rate mode : Constant\nBit rate : 448 Kbps\nChannel(s) : 6 channels\nChannel positions : Front: L C R, Side: L R, LFE\nSampling rate : 48.0 KHz\nBit depth : 16 bits\nCompression mode : Lossy\nDelay relative to video : 2s 300ms\nStream size : 485 MiB (32%)\nAlignment : Split accross interleaves\nInterleave, duration : 4694 ms (117.36 video frames)\n\n\nPoster:\n\n &lt;a href=&quot;\nhttp://i.imgur.com/zdpBb.jpg&quot; rel=&quot;nofollow&quot; target=&quot;_NEW&quot;&gt;\nhttp://i.imgur.com/zdpBb.jpg&lt;/a&gt;\n\n\nScreens:\n\n &lt;a href=&quot;\nhttp://i.imgur.com/qV7dd.png&quot; rel=&quot;nofollow&quot; target=&quot;_NEW&quot;&gt;\nhttp://i.imgur.com/qV7dd.png&lt;/a&gt;\n\n &lt;a href=&quot;\nhttp://i.imgur.com/z3vb3.png&quot; rel=&quot;nofollow&quot; target=&quot;_NEW&quot;&gt;\nhttp://i.imgur.com/z3vb3.png&lt;/a&gt;\n\n &lt;a href=&quot;\nhttp://i.imgur.com/qMYpe.png&quot; rel=&quot;nofollow&quot; target=&quot;_NEW&quot;&gt;\nhttp://i.imgur.com/qMYpe.png&lt;/a&gt;\n\n\nENJOY!","torrent":{"xt":"urn:btih:83dedb46695dbe9346cf332f08bf950debbbebf5","amp;dn":"The+Girl+With+The+Dragon+Tattoo+2011+R5+DVDRip+XVID+AC3-26K","amp;tr":["udp%3A%2F%2Ftracker.openbittorrent.com%3A80","udp%3A%2F%2Fopen.demonii.com%3A1337","udp%3A%2F%2Ftracker.coppersurfer.tk%3A6969","udp%3A%2F%2Fexodus.desync.com%3A6969"],"infoHash":"83dedb46695dbe9346cf332f08bf950debbbebf5","infoHashBuffer":{"type":"Buffer","data":[131,222,219,70,105,93,190,147,70,207,51,47,8,191,149,13,235,187,235,245]},"announce":[],"urlList":[]}}